<svg width="229" height="30" viewBox="0 0 229 30" fill="none" xmlns="http://www.w3.org/2000/svg">
<rect y="0.611633" width="229" height="29" rx="4" fill="url(#paint0_linear_34_719)"/>
<path d="M9.00426 10.4298H11.2614L14.2841 17.8077H14.4034L17.4261 10.4298H19.6832V20.6116H17.9134V13.6166H17.8189L15.005 20.5818H13.6825L10.8686 13.6017H10.7741V20.6116H9.00426V10.4298ZM22.9993 20.6116H21.0305L24.6151 10.4298H26.892L30.4815 20.6116H28.5128L25.7933 12.5179H25.7138L22.9993 20.6116ZM23.0639 16.6194H28.4332V18.101H23.0639V16.6194Z" fill="#131313"/>
<path d="M204.743 19.0994C204.234 19.0994 203.784 19.0118 203.393 18.8366C203.005 18.6615 202.701 18.42 202.481 18.1122C202.261 17.8045 202.152 17.4541 202.154 17.0611C202.152 16.7533 202.214 16.4704 202.342 16.2124C202.473 15.9519 202.649 15.7353 202.871 15.5625C203.094 15.3873 203.343 15.276 203.617 15.2287V15.1861C203.255 15.0985 202.965 14.9044 202.747 14.6037C202.529 14.303 202.422 13.9574 202.424 13.5668C202.422 13.1951 202.52 12.8636 202.719 12.5724C202.92 12.2789 203.196 12.0481 203.546 11.88C203.897 11.7119 204.295 11.6278 204.743 11.6278C205.186 11.6278 205.581 11.7131 205.929 11.8835C206.279 12.0516 206.555 12.2824 206.756 12.576C206.958 12.8672 207.059 13.1974 207.062 13.5668C207.059 13.9574 206.948 14.303 206.728 14.6037C206.508 14.9044 206.221 15.0985 205.869 15.1861V15.2287C206.141 15.276 206.386 15.3873 206.604 15.5625C206.824 15.7353 206.999 15.9519 207.129 16.2124C207.262 16.4704 207.329 16.7533 207.332 17.0611C207.329 17.4541 207.218 17.8045 206.998 18.1122C206.778 18.42 206.472 18.6615 206.082 18.8366C205.693 19.0118 205.247 19.0994 204.743 19.0994ZM204.743 18.201C205.044 18.201 205.304 18.1513 205.524 18.0518C205.744 17.95 205.915 17.8092 206.036 17.6293C206.156 17.447 206.218 17.2339 206.22 16.9901C206.218 16.7367 206.152 16.513 206.021 16.3189C205.893 16.1248 205.719 15.9721 205.499 15.8608C205.279 15.7495 205.027 15.6939 204.743 15.6939C204.456 15.6939 204.202 15.7495 203.979 15.8608C203.757 15.9721 203.582 16.1248 203.454 16.3189C203.326 16.513 203.263 16.7367 203.266 16.9901C203.263 17.2339 203.321 17.447 203.44 17.6293C203.56 17.8092 203.732 17.95 203.955 18.0518C204.177 18.1513 204.44 18.201 204.743 18.201ZM204.743 14.8168C204.984 14.8168 205.199 14.7682 205.386 14.6712C205.573 14.5741 205.719 14.4392 205.826 14.2663C205.935 14.0935 205.991 13.8911 205.993 13.6591C205.991 13.4318 205.936 13.233 205.83 13.0625C205.725 12.892 205.58 12.7607 205.393 12.6683C205.206 12.5736 204.989 12.5263 204.743 12.5263C204.492 12.5263 204.272 12.5736 204.082 12.6683C203.895 12.7607 203.75 12.892 203.646 13.0625C203.541 13.233 203.491 13.4318 203.493 13.6591C203.491 13.8911 203.543 14.0935 203.649 14.2663C203.756 14.4392 203.902 14.5741 204.089 14.6712C204.279 14.7682 204.497 14.8168 204.743 14.8168ZM211.136 19.1207C210.575 19.1184 210.095 18.9704 209.698 18.6768C209.3 18.3833 208.996 17.956 208.785 17.3949C208.574 16.8338 208.469 16.1579 208.469 15.3672C208.469 14.5788 208.574 13.9053 208.785 13.3466C208.998 12.7879 209.303 12.3617 209.701 12.0682C210.101 11.7746 210.579 11.6278 211.136 11.6278C211.692 11.6278 212.169 11.7758 212.567 12.0717C212.965 12.3653 213.269 12.7914 213.48 13.3501C213.693 13.9065 213.799 14.5788 213.799 15.3672C213.799 16.1603 213.694 16.8374 213.483 17.3984C213.272 17.9571 212.968 18.3845 212.57 18.6804C212.173 18.974 211.695 19.1207 211.136 19.1207ZM211.136 18.1726C211.628 18.1726 212.013 17.9323 212.29 17.4517C212.569 16.9711 212.709 16.2763 212.709 15.3672C212.709 14.7635 212.645 14.2533 212.517 13.8366C212.392 13.4176 212.211 13.1004 211.974 12.8849C211.74 12.6671 211.46 12.5582 211.136 12.5582C210.646 12.5582 210.261 12.7997 209.982 13.2827C209.702 13.7656 209.561 14.4605 209.559 15.3672C209.559 15.9732 209.622 16.4858 209.747 16.9048C209.875 17.3215 210.056 17.6375 210.291 17.853C210.525 18.0661 210.807 18.1726 211.136 18.1726ZM215.158 19V11.7273H216.256V15.2003H216.344L219.395 11.7273H220.776L217.843 15.0014L220.787 19H219.466L217.115 15.7507L216.256 16.7379V19H215.158Z" fill="#131313"/>
<defs>
<linearGradient id="paint0_linear_34_719" x1="-5.89338" y1="15" x2="257.625" y2="15" gradientUnits="userSpaceOnUse">
<stop stop-color="#FFCD71"/>
<stop offset="1" stop-color="#FFCD71" stop-opacity="0"/>
</linearGradient>
</defs>
</svg>
