<svg width="207" height="30" viewBox="0 0 207 30" fill="none" xmlns="http://www.w3.org/2000/svg">
<rect y="0.611633" width="207" height="29" rx="4" fill="url(#paint0_linear_34_721)"/>
<path d="M17.3714 10.4298V20.6116H15.7308L10.9332 13.6763H10.8487V20.6116H9.00426V10.4298H10.6548L15.4474 17.3702H15.5369V10.4298H17.3714ZM19.3812 20.6116V10.4298H21.2257V14.7402H25.9437V10.4298H27.7931V20.6116H25.9437V16.2863H21.2257V20.6116H19.3812Z" fill="#131313"/>
<path d="M181.214 19L184.389 12.7216V12.6683H180.717V11.7273H185.525V12.7003L182.361 19H181.214ZM189.136 19.1207C188.575 19.1184 188.095 18.9704 187.698 18.6768C187.3 18.3833 186.996 17.956 186.785 17.3949C186.574 16.8338 186.469 16.1579 186.469 15.3672C186.469 14.5788 186.574 13.9053 186.785 13.3466C186.998 12.7879 187.303 12.3617 187.701 12.0682C188.101 11.7746 188.579 11.6278 189.136 11.6278C189.692 11.6278 190.169 11.7758 190.567 12.0717C190.965 12.3653 191.269 12.7914 191.48 13.3501C191.693 13.9065 191.799 14.5788 191.799 15.3672C191.799 16.1603 191.694 16.8374 191.483 17.3984C191.272 17.9571 190.968 18.3845 190.57 18.6804C190.173 18.974 189.695 19.1207 189.136 19.1207ZM189.136 18.1726C189.628 18.1726 190.013 17.9323 190.29 17.4517C190.569 16.9711 190.709 16.2763 190.709 15.3672C190.709 14.7635 190.645 14.2533 190.517 13.8366C190.392 13.4176 190.211 13.1004 189.974 12.8849C189.74 12.6671 189.46 12.5582 189.136 12.5582C188.646 12.5582 188.261 12.7997 187.982 13.2827C187.702 13.7656 187.561 14.4605 187.559 15.3672C187.559 15.9732 187.622 16.4858 187.747 16.9048C187.875 17.3215 188.056 17.6375 188.291 17.853C188.525 18.0661 188.807 18.1726 189.136 18.1726ZM193.158 19V11.7273H194.256V15.2003H194.344L197.395 11.7273H198.776L195.843 15.0014L198.787 19H197.466L195.115 15.7507L194.256 16.7379V19H193.158Z" fill="#131313"/>
<defs>
<linearGradient id="paint0_linear_34_721" x1="-5.32721" y1="15" x2="232.875" y2="15" gradientUnits="userSpaceOnUse">
<stop stop-color="#FFCD71"/>
<stop offset="1" stop-color="#FFCD71" stop-opacity="0"/>
</linearGradient>
</defs>
</svg>
