<svg width="272" height="30" viewBox="0 0 272 30" fill="none" xmlns="http://www.w3.org/2000/svg">
<rect y="0.611633" width="272" height="29" rx="4" fill="url(#paint0_linear_34_717)"/>
<path d="M17.3714 10.4298V20.6116H15.7308L10.9332 13.6763H10.8487V20.6116H9.00426V10.4298H10.6548L15.4474 17.3702H15.5369V10.4298H17.3714ZM18.6852 10.4298H20.7683L23.2591 14.9341H23.3585L25.8493 10.4298H27.9324L24.2285 16.8133V20.6116H22.389V16.8133L18.6852 10.4298Z" fill="#131313"/>
<path d="M243.504 11.7273V19H242.403V12.8281H242.36L240.62 13.9645V12.9134L242.435 11.7273H243.504ZM245.471 19V18.2045L247.932 15.6548C248.195 15.3778 248.411 15.1352 248.582 14.9268C248.755 14.7161 248.884 14.5161 248.969 14.3267C249.054 14.1373 249.097 13.9361 249.097 13.723C249.097 13.4815 249.04 13.2732 248.926 13.098C248.813 12.9205 248.658 12.7843 248.461 12.6896C248.265 12.5926 248.043 12.544 247.797 12.544C247.537 12.544 247.309 12.5973 247.115 12.7038C246.921 12.8104 246.772 12.9607 246.668 13.1548C246.564 13.349 246.512 13.5762 246.512 13.8366H245.464C245.464 13.3939 245.566 13.0069 245.769 12.6754C245.973 12.344 246.252 12.0871 246.607 11.9048C246.963 11.7202 247.366 11.6278 247.818 11.6278C248.275 11.6278 248.678 11.719 249.026 11.9013C249.376 12.0812 249.65 12.3274 249.846 12.6399C250.043 12.95 250.141 13.3004 250.141 13.6911C250.141 13.9609 250.09 14.2249 249.988 14.483C249.889 14.741 249.715 15.0286 249.466 15.3459C249.218 15.6607 248.872 16.0431 248.429 16.4929L246.984 18.0057V18.0589H250.258V19H245.471ZM254.136 19.1207C253.575 19.1184 253.095 18.9704 252.698 18.6768C252.3 18.3833 251.996 17.956 251.785 17.3949C251.574 16.8338 251.469 16.1579 251.469 15.3672C251.469 14.5788 251.574 13.9053 251.785 13.3466C251.998 12.7879 252.303 12.3617 252.701 12.0682C253.101 11.7746 253.579 11.6278 254.136 11.6278C254.692 11.6278 255.169 11.7758 255.567 12.0717C255.965 12.3653 256.269 12.7914 256.48 13.3501C256.693 13.9065 256.799 14.5788 256.799 15.3672C256.799 16.1603 256.694 16.8374 256.483 17.3984C256.272 17.9571 255.968 18.3845 255.57 18.6804C255.173 18.974 254.695 19.1207 254.136 19.1207ZM254.136 18.1726C254.628 18.1726 255.013 17.9323 255.29 17.4517C255.569 16.9711 255.709 16.2763 255.709 15.3672C255.709 14.7635 255.645 14.2533 255.517 13.8366C255.392 13.4176 255.211 13.1004 254.974 12.8849C254.74 12.6671 254.46 12.5582 254.136 12.5582C253.646 12.5582 253.261 12.7997 252.982 13.2827C252.702 13.7656 252.561 14.4605 252.559 15.3672C252.559 15.9732 252.622 16.4858 252.747 16.9048C252.875 17.3215 253.056 17.6375 253.291 17.853C253.525 18.0661 253.807 18.1726 254.136 18.1726ZM258.158 19V11.7273H259.256V15.2003H259.344L262.395 11.7273H263.776L260.843 15.0014L263.787 19H262.466L260.115 15.7507L259.256 16.7379V19H258.158Z" fill="#131313"/>
<defs>
<linearGradient id="paint0_linear_34_717" x1="-7" y1="15" x2="306" y2="15" gradientUnits="userSpaceOnUse">
<stop stop-color="#FFCD71"/>
<stop offset="1" stop-color="#FFCD71" stop-opacity="0"/>
</linearGradient>
</defs>
</svg>
